<?xml version="1.0" standalone="no"?>
<!DOCTYPE svg PUBLIC "-//W3C//DTD SVG 1.1//EN" "http://www.w3.org/Graphics/SVG/1.1/DTD/svg11.dtd" >
<svg xmlns="http://www.w3.org/2000/svg" xmlns:xlink="http://www.w3.org/1999/xlink" version="1.1">
<metadata>
Created by FontForge 20200511 at Wed Jun 26 01:02:30 2024
 By convertio
Copyright urgfrgrths 2024
</metadata>
<defs>
<font id="Linescript" horiz-adv-x="780" >
  <font-face 
    font-family="Linescript"
    font-weight="400"
    font-stretch="normal"
    units-per-em="2048"
    panose-1="0 0 4 0 0 0 0 0 0 0"
    ascent="1638"
    descent="-410"
    x-height="780"
    cap-height="1365"
    bbox="-97 -780 2048 1560"
    underline-thickness="102"
    underline-position="51"
    unicode-range="U+0020-201D"
  />
<missing-glyph horiz-adv-x="1147" 
d="M981 50l-456 613l-456 -613h912zM50 69l455 613l-455 614v-1227zM1000 69v1227l-456 -614zM525 701l456 614h-912zM0 0v1365h1050v-1365h-1050z" />
    <glyph glyph-name=".notdef" horiz-adv-x="1147" 
d="M981 50l-456 613l-456 -613h912zM50 69l455 613l-455 614v-1227zM1000 69v1227l-456 -614zM525 701l456 614h-912zM0 0v1365h1050v-1365h-1050z" />
    <glyph glyph-name=".null" horiz-adv-x="0" 
 />
    <glyph glyph-name="nonmarkingreturn" horiz-adv-x="682" 
 />
    <glyph glyph-name="space" unicode=" " horiz-adv-x="341" 
 />
    <glyph glyph-name="exclam" unicode="!" horiz-adv-x="195" 
d="M0 0v97h97v-97h-97zM0 195v1170h97v-1170h-97z" />
    <glyph glyph-name="quotedbl" unicode="&#x22;" horiz-adv-x="390" 
d="M0 1170v195h97v-195h-97zM195 1170v195h97v-195h-97z" />
    <glyph glyph-name="numbersign" unicode="#" horiz-adv-x="1072" 
d="M682 292v390h-390v-390h390zM195 0v195h-195v97h195v390h-195v98h195v195h97v-195h390v195h98v-195h195v-98h-195v-390h195v-97h-195v-195h-98v195h-390v-195h-97z" />
    <glyph glyph-name="dollar" unicode="$" 
d="M487 195v292h-97v-292h97zM292 682v390h-97v-390h97zM292 -195v195h-292v97h292v390h-97v98h-98v195h-97v292h97v98h98v97h97v293h98v-195h292v-98h-292v-585h97v-97h98v-98h97v-292h-97v-98h-98v-97h-97v-195h-98z" />
    <glyph glyph-name="percent" unicode="%" horiz-adv-x="877" 
d="M0 0v97h97v-97h-97zM97 97v195h98v-195h-98zM195 292v98h97v-98h-97zM682 292v98h-97v-98h97zM487 195v292h293v-292h-293zM292 390v195h98v-195h-98zM390 585v195h97v-195h-97zM195 780v97h-98v-97h98zM487 780v97h98v-97h-98zM0 682v293h292v-293h-292zM585 877v195h97
v-195h-97zM682 1072v98h98v-98h-98z" />
    <glyph glyph-name="ampersand" unicode="&#x26;" horiz-adv-x="1267" 
d="M292 0v97h293v-97h-293zM195 97v98h97v-98h-97zM97 195v97h98v-97h-98zM780 0v97h-195v98h97v390h98v-293h97v98h98v97h195v-97h-98v-98h-97v-97h-98v-98h195v-97h-292zM0 292v390h97v-390h-97zM585 585v97h97v-97h-97zM97 682v98h98v-98h-98zM487 682v98h98v-98h-98z
M195 780v97h292v-97h-292zM97 877v293h98v-293h-98zM487 877v293h98v-293h-98zM195 1170v97h292v-97h-292z" />
    <glyph glyph-name="quotesingle" unicode="'" horiz-adv-x="195" 
d="M0 1170v195h97v-195h-97z" />
    <glyph glyph-name="parenleft" unicode="(" horiz-adv-x="487" 
d="M292 0v97h98v-97h-98zM195 97v98h97v-98h-97zM97 195v97h98v-97h-98zM0 292v975h97v-975h-97zM97 1267v98h98v-98h-98zM195 1365v97h97v-97h-97zM292 1462v98h98v-98h-98z" />
    <glyph glyph-name="parenright" unicode=")" horiz-adv-x="487" 
d="M0 0v97h97v-97h-97zM97 97v98h98v-98h-98zM195 195v97h97v-97h-97zM292 292v975h98v-975h-98zM195 1267v98h97v-98h-97zM97 1365v97h98v-97h-98zM0 1462v98h97v-98h-97z" />
    <glyph glyph-name="asterisk" unicode="*" horiz-adv-x="585" 
d="M0 1072v98h97v-98h-97zM390 1072v98h97v-98h-97zM0 1267v98h97v-98h-97zM390 1267v98h97v-98h-97zM195 975v195h-98v97h98v195h97v-195h98v-97h-98v-195h-97z" />
    <glyph glyph-name="plus" unicode="+" horiz-adv-x="585" 
d="M195 390v195h-195v97h195v195h97v-195h195v-97h-195v-195h-97z" />
    <glyph glyph-name="comma" unicode="," horiz-adv-x="292" 
d="M0 -97v97h97v97h98v-194h-195z" />
    <glyph glyph-name="hyphen" unicode="-" horiz-adv-x="585" 
d="M0 585v97h487v-97h-487z" />
    <glyph glyph-name="period" unicode="." horiz-adv-x="195" 
d="M0 0v97h97v-97h-97z" />
    <glyph glyph-name="slash" unicode="/" horiz-adv-x="487" 
d="M0 0v292h97v-292h-97zM97 292v488h98v-488h-98zM195 780v487h97v-487h-97zM292 1267v293h98v-293h-98z" />
    <glyph glyph-name="zero" unicode="0" horiz-adv-x="877" 
d="M195 0v97h390v-97h-390zM97 97v98h98v-98h-98zM585 97v98h97v-98h-97zM0 195v975h97v-975h-97zM682 195v975h98v-975h-98zM97 1170v97h98v-97h-98zM585 1170v97h97v-97h-97zM195 1267v98h390v-98h-390z" />
    <glyph glyph-name="one" unicode="1" horiz-adv-x="390" 
d="M0 0v97h97v1073h-97v97h97v98h98v-1268h97v-97h-292z" />
    <glyph glyph-name="two" unicode="2" horiz-adv-x="1072" 
d="M0 0v97h97v98h98v-98h780v-97h-975zM195 195v97h97v-97h-97zM292 292v98h98v-98h-98zM390 390v97h97v-97h-97zM487 487v98h98v-98h-98zM585 585v97h97v-97h-97zM682 682v98h98v-98h-98zM780 780v97h97v-97h-97zM0 1072v98h97v-98h-97zM877 877v293h98v-293h-98zM97 1170
v97h98v-97h-98zM780 1170v97h97v-97h-97zM195 1267v98h585v-98h-585z" />
    <glyph glyph-name="three" unicode="3" horiz-adv-x="877" 
d="M195 0v97h390v-97h-390zM97 97v98h98v-98h-98zM585 97v98h97v-98h-97zM0 195v97h97v-97h-97zM682 195v292h98v-292h-98zM585 487v98h97v-98h-97zM195 585v97h390v-97h-390zM585 682v98h97v-98h-97zM0 1072v98h97v-98h-97zM682 780v390h98v-390h-98zM97 1170v97h98v-97
h-98zM585 1170v97h97v-97h-97zM195 1267v98h390v-98h-390z" />
    <glyph glyph-name="four" unicode="4" horiz-adv-x="682" 
d="M97 682v195h98v-195h-98zM195 877v195h97v-195h-97zM292 0v97h98v390h-390v195h97v-97h293v487h-98v195h98v98h97v-780h98v-98h-98v-390h98v-97h-293z" />
    <glyph glyph-name="five" unicode="5" horiz-adv-x="682" 
d="M0 0v97h390v-97h-390zM390 97v98h97v-98h-97zM487 195v390h98v-390h-98zM390 585v97h97v-97h-97zM0 682v585h487v-97h-390v-390h293v-98h-390z" />
    <glyph glyph-name="six" unicode="6" 
d="M195 0v97h292v-97h-292zM97 97v98h98v-98h-98zM487 97v98h98v-98h-98zM585 195v292h97v-292h-97zM487 487v98h98v-98h-98zM195 585v97h292v-97h-292zM0 195v877h97v-487h98v-98h-98v-292h-97zM585 975v97h97v-97h-97zM97 1072v98h98v-98h-98zM487 1072v98h98v-98h-98z
M195 1170v97h292v-97h-292z" />
    <glyph glyph-name="seven" unicode="7" horiz-adv-x="682" 
d="M487 0v1170h-390v-98h-97v195h585v-1267h-98z" />
    <glyph glyph-name="eight" unicode="8" 
d="M195 0v97h292v-97h-292zM97 97v98h98v-98h-98zM487 97v98h98v-98h-98zM0 195v292h97v-292h-97zM585 195v292h97v-292h-97zM97 487v98h98v-98h-98zM487 487v98h98v-98h-98zM195 585v97h292v-97h-292zM97 682v98h98v-98h-98zM487 682v98h98v-98h-98zM0 780v292h97v-292h-97
zM585 780v292h97v-292h-97zM97 1072v98h98v-98h-98zM487 1072v98h98v-98h-98zM195 1170v97h292v-97h-292z" />
    <glyph glyph-name="nine" unicode="9" 
d="M195 0v97h292v-97h-292zM97 97v98h98v-98h-98zM487 97v98h98v-98h-98zM0 195v97h97v-97h-97zM195 585v97h292v-97h-292zM97 682v98h98v-98h-98zM0 780v292h97v-292h-97zM585 195v487h-98v98h98v292h97v-877h-97zM97 1072v98h98v-98h-98zM487 1072v98h98v-98h-98z
M195 1170v97h292v-97h-292z" />
    <glyph glyph-name="colon" unicode=":" horiz-adv-x="195" 
d="M0 0v97h97v-97h-97zM0 1072v98h97v-98h-97z" />
    <glyph glyph-name="semicolon" unicode=";" horiz-adv-x="292" 
d="M0 -97v97h97v97h98v-194h-195zM97 1072v98h98v-98h-98z" />
    <glyph glyph-name="less" unicode="&#x3c;" horiz-adv-x="1462" 
d="M1170 0v97h195v-97h-195zM877 97v98h293v-98h-293zM682 195v97h195v-97h-195zM390 292v98h292v-98h-292zM195 390v97h195v-97h-195zM0 487v98h195v-98h-195zM195 585v97h195v-97h-195zM390 682v98h292v-98h-292zM682 780v97h195v-97h-195zM877 877v98h293v-98h-293z
M1170 975v97h195v-97h-195z" />
    <glyph glyph-name="equal" unicode="=" horiz-adv-x="585" 
d="M0 487v98h487v-98h-487zM0 682v98h487v-98h-487z" />
    <glyph glyph-name="greater" unicode="&#x3e;" horiz-adv-x="1462" 
d="M0 0v97h195v-97h-195zM195 97v98h292v-98h-292zM487 195v97h195v-97h-195zM682 292v98h293v-98h-293zM975 390v97h195v-97h-195zM1170 487v98h195v-98h-195zM975 585v97h195v-97h-195zM682 682v98h293v-98h-293zM487 780v97h195v-97h-195zM195 877v98h292v-98h-292z
M0 975v97h195v-97h-195z" />
    <glyph glyph-name="question" unicode="?" horiz-adv-x="975" 
d="M292 0v97h98v-97h-98zM292 195v292h293v-97h-195v-195h-98zM585 487v98h97v-98h-97zM682 585v97h98v-97h-98zM780 682v390h97v-390h-97zM0 1072v98h97v-98h-97zM682 1072v98h98v-98h-98zM97 1170v97h98v-97h-98zM585 1170v97h97v-97h-97zM195 1267v98h390v-98h-390z" />
    <glyph glyph-name="at" unicode="@" horiz-adv-x="877" 
d="M487 390v195h-195v-195h195zM0 0v877h780v-682h-293v97h-292v390h390v-390h97v488h-585v-683h683v-97h-780z" />
    <glyph glyph-name="A" unicode="A" horiz-adv-x="1755" 
d="M0 0v97h97v98h98v195h97v-195h195v-98h98v-97h-585zM292 390v195h98v-195h-98zM585 975v195h97v-195h-97zM1072 0v97h98v98h97v195h-97v195h-98v97h-585v-97h-97v195h97v195h98v-195h390v195h-98v195h-195v97h98v98h97v-98h98v-97h97v-195h98v-195h97v-195h98v-195h97
v-195h98v-98h97v-97h-585z" />
    <glyph glyph-name="B" unicode="B" horiz-adv-x="877" 
d="M487 97v98h98v292h-98v98h-97v97h-98v-585h195zM390 780v97h97v98h98v195h-98v97h-195v-487h98zM0 0v97h97v98h98v975h-98v97h-97v98h585v-98h97v-97h98v-195h-98v-98h-97v-97h-98v-98h98v-97h97v-98h98v-292h-98v-98h-97v-97h-585z" />
    <glyph glyph-name="C" unicode="C" horiz-adv-x="975" 
d="M292 0v97h-97v98h-98v97h-97v780h97v98h98v97h97v98h390v-98h98v-97h97v-98h-195v98h-390v-98h-97v-97h-98v-585h98v-98h97v-97h390v97h195v-97h-97v-98h-98v-97h-390z" />
    <glyph glyph-name="D" unicode="D" horiz-adv-x="1072" 
d="M487 97v98h98v97h97v98h98v585h-98v97h-97v98h-293v-1073h195zM0 0v97h97v98h98v975h-98v97h-97v98h585v-98h97v-97h98v-98h97v-97h98v-585h-98v-98h-97v-97h-98v-98h-97v-97h-585z" />
    <glyph glyph-name="E" unicode="E" horiz-adv-x="1072" 
d="M0 0v97h97v98h98v975h-98v97h-97v98h975v-195h-98v97h-487v-487h390v97h97v-292h-97v97h-390v-585h487v98h98v-195h-975z" />
    <glyph glyph-name="F" unicode="F" horiz-adv-x="1072" 
d="M0 0v97h97v98h98v975h-98v97h-97v98h975v-195h-98v97h-487v-487h390v97h97v-292h-97v97h-390v-487h97v-98h98v-97h-585z" />
    <glyph glyph-name="G" unicode="G" horiz-adv-x="1170" 
d="M682 97v98h98v-98h-98zM975 0v390h-98v-195h-97v195h-195v97h487v-487h-97zM780 1072v98h97v-98h-97zM682 1170v97h98v-97h-98zM292 0v97h-97v98h-98v97h-97v780h97v98h98v97h97v98h390v-98h-292v-97h-98v-98h-97v-780h97v-97h98v-98h292v-97h-390z" />
    <glyph glyph-name="H" unicode="H" horiz-adv-x="1365" 
d="M0 0v97h97v98h98v975h-98v97h-97v98h585v-98h-98v-97h-97v-390h487v390h-97v97h-98v98h585v-98h-97v-97h-98v-975h98v-98h97v-97h-585v97h98v98h97v487h-487v-487h97v-98h98v-97h-585z" />
    <glyph glyph-name="I" unicode="I" horiz-adv-x="682" 
d="M0 0v97h97v98h98v975h-98v97h-97v98h585v-98h-98v-97h-97v-975h97v-98h98v-97h-585z" />
    <glyph glyph-name="J" unicode="J" horiz-adv-x="975" 
d="M97 -97v97h98v-97h-98zM0 0v97h97v-97h-97zM195 -195v98h195v97h97v1170h-97v97h-98v98h585v-98h-97v-97h-98v-1170h-97v-97h-98v-98h-292z" />
    <glyph glyph-name="K" unicode="K" horiz-adv-x="1462" 
d="M487 780v97h195v-97h-195zM682 877v98h98v-98h-98zM780 975v97h195v-97h-195zM0 0v97h97v98h98v975h-98v97h-97v98h585v-98h-98v-97h-97v-390h97v-98h195v-97h98v-98h195v-97h97v-98h98v-97h97v-98h98v-97h-585v97h97v98h98v97h-195v98h-98v97h-195v98h-97v-390h97v-98
h98v-97h-585zM975 1072v98h-98v97h-97v98h487v-98h-97v-97h-98v-98h-97z" />
    <glyph glyph-name="L" unicode="L" horiz-adv-x="1072" 
d="M0 0v97h97v98h98v975h-98v97h-97v98h585v-98h-98v-97h-97v-1073h487v98h98v-195h-975z" />
    <glyph glyph-name="M" unicode="M" horiz-adv-x="1657" 
d="M780 585v195h97v-195h-97zM877 780v195h98v-195h-98zM975 975v195h97v-195h-97zM0 0v97h97v98h98v975h-98v97h-97v98h390v-195h97v-195h98v-195h97v-195h98v-195h-98v97h-97v98h-98v195h-97v195h-98v-780h98v-98h97v-97h-487zM975 0v97h97v98h98v975h-98v195h488v-98h-98
v-97h-97v-975h97v-98h98v-97h-585z" />
    <glyph glyph-name="N" unicode="N" horiz-adv-x="1267" 
d="M0 0v97h97v98h98v975h-98v97h-97v98h390v-195h97v-195h98v-195h97v-195h98v-195h97v975h293v-98h-98v-97h-97v-975h97v-98h98v-97h-488v97h98v98h97v97h-195v98h-97v195h-98v195h-97v195h-98v-780h98v-98h97v-97h-487z" />
    <glyph glyph-name="O" unicode="O" horiz-adv-x="1072" 
d="M195 97v98h97v-98h-97zM97 195v97h98v-97h-98zM0 292v780h97v-780h-97zM97 1072v98h98v-98h-98zM195 1170v97h97v-97h-97zM292 0v97h293v98h97v97h98v780h-98v98h-97v97h-293v98h390v-98h98v-97h97v-98h98v-780h-98v-97h-97v-98h-98v-97h-390z" />
    <glyph glyph-name="P" unicode="P" horiz-adv-x="877" 
d="M585 780v97h97v-97h-97zM682 877v293h98v-293h-98zM585 1170v97h97v-97h-97zM0 0v97h97v98h98v975h-98v97h-97v98h585v-98h-195v-487h195v-98h-195v-487h97v-98h98v-97h-585z" />
    <glyph glyph-name="Q" unicode="Q" horiz-adv-x="1267" 
d="M195 97v98h97v-98h-97zM97 195v97h98v-97h-98zM0 292v780h97v-780h-97zM97 1072v98h98v-98h-98zM195 1170v97h97v-97h-97zM585 -292v97h-98v195h-195v97h195v293h98v-195h97v97h98v780h-98v98h-97v97h-293v98h390v-98h98v-97h97v-98h98v-780h-98v-97h-97v-98h-98v-97h-97
v-97h97v-98h488v-97h-585z" />
    <glyph glyph-name="R" unicode="R" horiz-adv-x="1072" 
d="M585 780v97h97v-97h-97zM682 877v293h98v-293h-98zM585 1170v97h97v-97h-97zM0 0v97h97v98h98v975h-98v97h-97v98h585v-98h-195v-487h195v-195h97v-195h98v-293h195v-97h-293v292h-97v195h-98v195h-97v-487h97v-98h98v-97h-585z" />
    <glyph glyph-name="S" unicode="S" 
d="M0 0v97h390v98h97v292h-292v98h-98v195h-97v292h97v98h98v97h97v98h390v-98h-292v-97h-98v-98h-97v-390h292v-97h98v-98h97v-292h-97v-98h-98v-97h-487z" />
    <glyph glyph-name="T" unicode="T" horiz-adv-x="1267" 
d="M292 0v97h98v98h97v1072h-390v-97h-97v195h1170v-195h-98v97h-390v-1072h98v-98h97v-97h-585z" />
    <glyph glyph-name="U" unicode="U" horiz-adv-x="1560" 
d="M877 97v98h98v-98h-98zM975 195v97h97v-97h-97zM1072 292v98h98v-98h-98zM585 0v97h-98v98h-97v97h-98v98h-97v780h-98v97h-97v98h585v-98h-98v-97h-97v-780h97v-98h98v-97h97v-98h195v-97h-292zM1170 390v780h-98v97h-97v98h487v-98h-97v-97h-98v-780h-97z" />
    <glyph glyph-name="V" unicode="V" horiz-adv-x="1560" 
d="M682 0v195h98v-195h-98zM780 195v195h97v-195h-97zM877 390v195h98v-195h-98zM975 585v195h97v-195h-97zM1072 780v195h98v-195h-98zM585 195v195h-98v195h-97v195h-98v195h-97v195h-98v97h-97v98h585v-98h-98v-97h-97v-195h97v-195h98v-195h97v-390h-97zM1170 975v195
h-98v97h-97v98h487v-98h-97v-97h-98v-195h-97z" />
    <glyph glyph-name="W" unicode="W" horiz-adv-x="2145" 
d="M682 0v195h98v-195h-98zM1267 0v195h98v-195h-98zM780 195v195h97v-195h-97zM1170 195v195h97v-195h-97zM1365 195v195h97v-195h-97zM877 390v195h98v-195h-98zM1072 390v195h98v-195h-98zM1462 390v195h98v-195h-98zM975 585v195h97v-195h-97zM1560 585v195h97v-195h-97
zM877 780v195h98v-195h-98zM1072 780v195h98v-195h-98zM1657 780v195h98v-195h-98zM780 975v195h-98v97h293v-97h-98v-195h-97zM1170 975v195h-98v97h293v-97h-98v-195h-97zM585 195v195h-98v195h-97v195h-98v195h-97v195h-98v97h-97v98h585v-98h-98v-97h-97v-195h97v-195
h98v-195h97v-390h-97zM1755 975v195h-98v97h-97v98h488v-98h-98v-97h-98v-195h-97z" />
    <glyph glyph-name="X" unicode="X" horiz-adv-x="1462" 
d="M-97 0v97h97v98h97v97h98v-97h97v-98h98v-97h-487zM195 292v98h97v-98h-97zM292 390v97h98v-97h-98zM390 487v98h97v-98h-97zM682 780v97h98v-97h-98zM780 877v98h97v-98h-97zM877 975v97h98v-97h-98zM780 0v97h97v98h98v97h-98v98h-97v97h-98v98h-195v195h-97v97h-98v98
h-97v195h-98v97h-97v98h487v-98h-97v-97h-98v-98h98v-97h97v-98h98v-97h97v-98h98v-97h97v-98h98v-97h97v-98h98v-97h97v-98h98v-97h-585zM975 1072v98h-98v97h-97v98h487v-98h-97v-97h-98v-98h-97z" />
    <glyph glyph-name="Y" unicode="Y" horiz-adv-x="1462" 
d="M877 877v98h98v-98h-98zM975 975v97h97v-97h-97zM390 0v97h97v98h98v585h-98v97h-97v98h-98v97h-97v98h-98v97h-97v98h585v-98h-98v-97h-97v-98h97v-97h98v-98h292v-97h-97v-585h97v-98h98v-97h-585zM1072 1072v98h-97v97h-98v98h488v-98h-98v-97h-97v-98h-98z" />
    <glyph glyph-name="Z" unicode="Z" horiz-adv-x="975" 
d="M0 0v292h97v293h195v195h98v97h97v98h98v195h97v97h-585v-97h-97v195h877v-195h-97v-195h-98v-98h-97v-97h-98v-195h-97v-98h-98v-97h-97v-195h-98v-98h683v98h97v-195h-877z" />
    <glyph glyph-name="bracketleft" unicode="[" horiz-adv-x="487" 
d="M0 0v1560h390v-98h-293v-1365h293v-97h-390z" />
    <glyph glyph-name="backslash" unicode="\" horiz-adv-x="585" 
d="M390 0v195h97v-195h-97zM292 195v390h98v-390h-98zM195 585v390h97v-390h-97zM97 975v390h98v-390h-98zM0 1365v195h97v-195h-97z" />
    <glyph glyph-name="bracketright" unicode="]" horiz-adv-x="487" 
d="M0 0v97h292v1365h-292v98h390v-1560h-390z" />
    <glyph glyph-name="asciicircum" unicode="^" horiz-adv-x="585" 
d="M0 975v97h97v-97h-97zM390 975v97h97v-97h-97zM97 1072v98h98v-98h-98zM292 1072v98h98v-98h-98zM195 1170v97h97v-97h-97z" />
    <glyph glyph-name="underscore" unicode="_" horiz-adv-x="682" 
d="M0 0v97h585v-97h-585z" />
    <glyph glyph-name="grave" unicode="`" horiz-adv-x="292" 
d="M97 1072v98h98v-98h-98zM0 1170v97h97v-97h-97z" />
    <glyph glyph-name="a" unicode="a" 
d="M97 97v98h98v-98h-98zM0 195v97h97v-97h-97zM195 0v97h292v195h-390v98h390v195h98v-488h97v-97h-487zM0 585v97h97v-97h-97zM390 585v97h97v-97h-97zM97 682v98h293v-98h-293z" />
    <glyph glyph-name="b" unicode="b" 
d="M487 97v98h98v-98h-98zM585 195v97h97v-97h-97zM487 292v98h98v-98h-98zM97 0v1267h-97v98h195v-878h292v-97h-292v-293h292v-97h-390z" />
    <glyph glyph-name="c" unicode="c" horiz-adv-x="682" 
d="M195 0v97h292v-97h-292zM97 97v98h98v-98h-98zM487 97v98h98v-98h-98zM0 195v390h97v-390h-97zM97 585v97h98v-97h-98zM487 585v97h98v-97h-98zM195 682v98h292v-98h-292z" />
    <glyph glyph-name="d" unicode="d" 
d="M97 97v98h98v-98h-98zM0 195v97h97v-97h-97zM97 292v98h98v-98h-98zM195 0v97h292v293h-292v97h292v878h195v-98h-97v-1267h-390z" />
    <glyph glyph-name="e" unicode="e" horiz-adv-x="877" 
d="M195 0v97h390v-97h-390zM97 97v98h98v-98h-98zM585 97v98h97v-98h-97zM682 195v97h98v-97h-98zM0 195v292h97v-292h-97zM97 487v98h98v97h97v-97h293v97h97v-97h98v-98h-683zM292 682v98h293v-98h-293z" />
    <glyph glyph-name="f" unicode="f" horiz-adv-x="877" 
d="M0 0v97h97v98h98v585h-195v97h195v293h97v-293h195v-97h-195v-585h98v-98h97v-97h-487zM682 975v195h98v-195h-98zM292 1170v97h98v-97h-98zM585 1170v97h97v-97h-97zM390 1267v98h195v-98h-195z" />
    <glyph glyph-name="g" unicode="g" 
d="M195 -487v97h292v-97h-292zM97 -390v98h98v-98h-98zM487 -390v98h98v-98h-98zM0 -292v97h97v-97h-97zM195 0v97h292v-97h-292zM97 97v98h98v-98h-98zM0 195v390h97v-390h-97zM585 -292v389h-98v98h98v390h97v-877h-97zM97 585v97h98v-97h-98zM487 585v97h98v-97h-98z
M195 682v98h292v-98h-292z" />
    <glyph glyph-name="h" unicode="h" horiz-adv-x="1170" 
d="M585 0v97h97v98h98v390h97v-390h98v-98h97v-97h-487zM390 585v97h97v-97h-97zM682 585v97h98v-97h-98zM487 682v98h195v-98h-195zM0 0v97h97v98h98v975h-98v97h-97v98h292v-780h98v-98h-98v-292h98v-98h97v-97h-487z" />
    <glyph glyph-name="i" unicode="i" horiz-adv-x="390" 
d="M0 0v97h97v390h-97v98h195v-488h97v-97h-292zM97 682v98h98v-98h-98z" />
    <glyph glyph-name="j" unicode="j" horiz-adv-x="682" 
d="M195 -390v98h195v-98h-195zM97 -292v97h98v-97h-98zM390 -292v97h97v-97h-97zM0 -195v98h97v-98h-97zM487 -195v682h-97v98h195v-780h-98zM487 682v98h98v-98h-98z" />
    <glyph glyph-name="k" unicode="k" 
d="M390 0v97h97v98h98v-98h97v-97h-292zM390 195v97h97v-97h-97zM292 292v98h98v-98h-98zM292 487v98h98v-98h-98zM390 585v97h97v-97h-97zM487 682v98h-97v97h292v-97h-97v-98h-98zM0 0v97h97v1170h-97v98h195v-878h97v-97h-97v-293h97v-97h-292z" />
    <glyph glyph-name="l" unicode="l" horiz-adv-x="390" 
d="M0 0v97h97v1170h-97v98h195v-1268h97v-97h-292z" />
    <glyph glyph-name="m" unicode="m" horiz-adv-x="1365" 
d="M487 0v97h98v488h97v-488h98v-97h-293zM975 0v97h97v488h98v-488h97v-97h-292zM487 585v97h98v-97h-98zM682 585v97h98v-97h-98zM975 585v97h97v-97h-97zM0 0v97h97v585h-97v98h195v-98h97v-97h-97v-488h97v-97h-292zM292 682v98h195v-98h-195zM780 682v98h195v-98h-195z
" />
    <glyph glyph-name="n" unicode="n" horiz-adv-x="877" 
d="M487 0v97h98v488h97v-488h98v-97h-293zM487 585v97h98v-97h-98zM0 0v97h97v585h-97v98h195v-98h97v-97h-97v-488h97v-97h-292zM292 682v98h195v-98h-195z" />
    <glyph glyph-name="o" unicode="o" 
d="M195 0v97h292v-97h-292zM97 97v98h98v-98h-98zM487 97v98h98v-98h-98zM0 195v390h97v-390h-97zM585 195v390h97v-390h-97zM97 585v97h98v-97h-98zM487 585v97h98v-97h-98zM195 682v98h292v-98h-292z" />
    <glyph glyph-name="p" unicode="p" horiz-adv-x="975" 
d="M585 97v98h97v-98h-97zM682 195v97h98v-97h-98zM780 292v195h97v-195h-97zM682 487v98h98v-98h-98zM585 585v97h97v-97h-97zM0 -682v97h97v1267h-97v98h585v-98h-390v-585h390v-97h-390v-585h97v-97h-292z" />
    <glyph glyph-name="q" unicode="q" horiz-adv-x="975" 
d="M195 97v98h97v-98h-97zM97 195v97h98v-97h-98zM0 292v195h97v-195h-97zM97 487v98h98v-98h-98zM195 585v97h97v-97h-97zM585 -682v97h97v585h-390v97h390v585h-390v98h585v-98h-97v-1267h97v-97h-292z" />
    <glyph glyph-name="r" unicode="r" 
d="M585 585v97h97v-97h-97zM487 682v98h98v-98h-98zM0 0v97h97v683h-97v97h195v-97h97v-98h-97v-585h97v-97h-292zM292 780v97h195v-97h-195z" />
    <glyph glyph-name="s" unicode="s" horiz-adv-x="585" 
d="M97 0v97h293v-97h-293zM390 97v195h97v-195h-97zM195 292v98h195v-98h-195zM97 390v97h98v-97h-98zM0 487v195h97v-195h-97zM97 682v98h98v-98h-98zM195 780v97h292v-97h-292z" />
    <glyph glyph-name="t" unicode="t" horiz-adv-x="682" 
d="M390 0v97h97v-97h-97zM292 97v98h98v-98h-98zM487 97v98h98v-98h-98zM195 195v585h-195v97h195v488h97v-488h195v-97h-195v-585h-97z" />
    <glyph glyph-name="u" unicode="u" 
d="M195 0v97h195v-97h-195zM97 97v98h98v-98h-98zM0 195v585h97v-585h-97zM487 0v97h-97v98h97v585h98v-683h97v-97h-195z" />
    <glyph glyph-name="v" unicode="v" horiz-adv-x="975" 
d="M390 0v195h97v-195h-97zM292 195v195h98v-195h-98zM487 195v195h98v-195h-98zM195 390v195h97v-195h-97zM585 390v195h97v-195h-97zM97 585v195h-97v97h292v-97h-97v-195h-98zM682 585v195h-97v97h292v-97h-97v-195h-98z" />
    <glyph glyph-name="w" unicode="w" horiz-adv-x="1365" 
d="M390 0v195h97v-195h-97zM780 0v195h97v-195h-97zM292 195v195h98v-195h-98zM487 195v195h98v-195h-98zM682 195v195h98v-195h-98zM877 195v195h98v-195h-98zM195 390v195h97v-195h-97zM585 390v195h97v-195h-97zM975 390v195h97v-195h-97zM97 585v195h-97v97h292v-97h-97
v-195h-98zM1072 585v195h-97v97h292v-97h-97v-195h-98z" />
    <glyph glyph-name="x" unicode="x" horiz-adv-x="975" 
d="M0 0v97h97v98h98v-98h97v-97h-292zM585 0v97h97v98h98v-98h97v-97h-292zM195 195v97h97v-97h-97zM585 195v97h97v-97h-97zM292 292v98h98v-98h-98zM487 292v98h98v-98h-98zM390 390v97h97v-97h-97zM292 487v98h98v-98h-98zM487 487v98h98v-98h-98zM195 585v97h97v-97h-97
zM585 585v97h97v-97h-97zM97 682v98h-97v97h292v-97h-97v-98h-98zM682 682v98h-97v97h292v-97h-97v-98h-98z" />
    <glyph glyph-name="y" unicode="y" horiz-adv-x="1365" 
d="M97 -780v98h98v-98h-98zM195 -682v195h97v-195h-97zM292 -487v97h98v-97h-98zM390 -390v195h97v-195h-97zM487 -195v195h98v-195h-98zM585 0v97h97v-97h-97zM487 97v195h98v-195h-98zM682 97v195h98v-195h-98zM390 292v98h97v-98h-97zM780 292v98h97v-98h-97zM292 390
v195h98v-195h-98zM877 390v195h98v-195h-98zM195 585v195h97v-195h-97zM975 585v195h97v-195h-97zM97 780v97h-97v98h292v-98h-97v-97h-98zM1072 780v97h-97v98h292v-98h-97v-97h-98z" />
    <glyph glyph-name="z" unicode="z" 
d="M0 0v195h97v-98h488v98h97v-195h-682zM97 195v97h98v-97h-98zM195 292v98h97v-98h-97zM292 390v97h98v-97h-98zM390 487v98h97v-98h-97zM487 585v97h98v-97h-98zM0 682v195h682v-195h-97v98h-488v-98h-97z" />
    <glyph glyph-name="braceleft" unicode="{" horiz-adv-x="682" 
d="M487 0v97h98v-97h-98zM390 97v98h97v-98h-97zM292 195v97h98v-97h-98zM195 292v293h97v-293h-97zM97 585v97h98v-97h-98zM0 682v195h97v-195h-97zM97 877v98h98v-98h-98zM195 975v292h97v-292h-97zM292 1267v98h98v-98h-98zM390 1365v97h97v-97h-97zM487 1462v98h98v-98
h-98z" />
    <glyph glyph-name="bar" unicode="|" horiz-adv-x="195" 
d="M0 -195v1560h97v-1560h-97z" />
    <glyph glyph-name="braceright" unicode="}" horiz-adv-x="682" 
d="M0 0v97h97v-97h-97zM97 97v98h98v-98h-98zM195 195v97h97v-97h-97zM292 292v293h98v-293h-98zM390 585v97h97v-97h-97zM487 682v195h98v-195h-98zM390 877v98h97v-98h-97zM292 975v292h98v-292h-98zM195 1267v98h97v-98h-97zM97 1365v97h98v-97h-98zM0 1462v98h97v-98
h-97z" />
    <glyph glyph-name="asciitilde" unicode="~" horiz-adv-x="585" 
d="M0 487v195h292v-97h98v97h97v-195h-292v98h-98v-98h-97z" />
    <glyph glyph-name="quoteleft" unicode="&#x2018;" horiz-adv-x="292" 
d="M0 1170v195h97v-98h98v-97h-195z" />
    <glyph glyph-name="quoteright" unicode="&#x2019;" horiz-adv-x="292" 
d="M0 1170v97h97v98h98v-195h-195z" />
    <glyph glyph-name="quotedblleft" unicode="&#x201c;" horiz-adv-x="585" 
d="M0 1170v195h97v-98h98v-97h-195zM292 1170v195h98v-98h97v-97h-195z" />
    <glyph glyph-name="quotedblright" unicode="&#x201d;" horiz-adv-x="585" 
d="M0 1170v97h97v98h98v-195h-195zM292 1170v97h98v98h97v-195h-195z" />
  </font>
</defs>
</svg>
